<svg xmlns="http://www.w3.org/2000/svg" width="19" height="38.472" viewBox="0 0 19 38.472">
  <g id="Union_14" data-name="Union 14" fill="#fff">
    <path d="M 18.39617538452148 37.9723014831543 L 0.6030826568603516 37.9723014831543 C 0.5346099734306335 37.52299499511719 0.5000004172325134 37.06435394287109 0.5000004172325134 36.60390090942383 L 0.5000004172325134 21.12030029296875 C 0.5000004172325134 18.8569450378418 1.329050540924072 16.72746658325195 2.845526456832886 15.06653881072998 C 4.678050518035889 17.18213272094727 7.021867752075195 18.33979988098145 9.499500274658203 18.33979988098145 C 11.97767639160156 18.33979988098145 14.32180786132813 17.18213272094727 16.15436935424805 15.0665397644043 C 17.67084503173828 16.72748947143555 18.49990081787109 18.85696411132813 18.49990081787109 21.12030029296875 L 18.49990081787109 36.60390090942383 C 18.49990081787109 37.06044769287109 18.4650764465332 37.51912307739258 18.39617538452148 37.9723014831543 Z M 9.648000717163086 15.90970039367676 C 5.422110557556152 15.90970039367676 1.984100461006165 12.45352077484131 1.984100461006165 8.205300331115723 C 1.984100461006165 3.956580638885498 5.422110557556152 0.5000007152557373 9.648000717163086 0.5000007152557373 C 13.87389087677002 0.5000007152557373 17.3119010925293 3.956580638885498 17.3119010925293 8.205300331115723 C 17.3119010925293 12.45352077484131 13.87389087677002 15.90970039367676 9.648000717163086 15.90970039367676 Z" stroke="none"/>
    <path d="M 17.95572280883789 37.4723014831543 C 17.9851016998291 37.18336868286133 17.99990081787109 36.89317321777344 17.99990081787109 36.60390090942383 L 17.99990081787109 21.12030029296875 C 17.99990081787109 19.16853141784668 17.34719276428223 17.32234191894531 16.14317321777344 15.82186222076416 C 14.2757453918457 17.77663612365723 11.95268440246582 18.83979988098145 9.499500274658203 18.83979988098145 C 7.046823978424072 18.83979988098145 4.724072933197021 17.77663803100586 2.856714487075806 15.82186317443848 C 1.652701497077942 17.32233238220215 1.000000357627869 19.16851425170898 1.000000357627869 21.12030029296875 L 1.000000357627869 36.60390090942383 C 1.000000357627869 36.89492034912109 1.014613628387451 37.18510055541992 1.043629169464111 37.4723014831543 L 17.95572280883789 37.4723014831543 M 9.648000717163086 15.40970039367676 C 13.59819030761719 15.40970039367676 16.8119010925293 12.17782115936279 16.8119010925293 8.205300331115723 C 16.8119010925293 4.232280731201172 13.59819030761719 1.000000715255737 9.648000717163086 1.000000715255737 C 5.697810173034668 1.000000715255737 2.484100341796875 4.232280731201172 2.484100341796875 8.205300331115723 C 2.484100341796875 12.17782115936279 5.697810173034668 15.40970039367676 9.648000717163086 15.40970039367676 M 18.8163013458252 38.4723014831543 L 18.81540107727051 38.4723014831543 L 0.1836004108190536 38.4723014831543 C 0.06120041012763977 37.86120223999023 4.089355343239731e-07 37.23300170898438 4.089355343239731e-07 36.60390090942383 L 4.089355343239731e-07 21.12030029296875 C 4.089355343239731e-07 18.53910064697266 1.021500468254089 16.12260055541992 2.875500440597534 14.31720066070557 C 4.659300327301025 16.58880043029785 7.011000633239746 17.83979988098145 9.499500274658203 17.83979988098145 C 11.98800086975098 17.83979988098145 14.34060001373291 16.58880043029785 16.1244010925293 14.31720066070557 C 17.97929954528809 16.12350082397461 18.99990081787109 18.54000091552734 18.99990081787109 21.12030029296875 L 18.99990081787109 36.60390090942383 C 18.99990081787109 37.23030090332031 18.93780136108398 37.85850143432617 18.8163013458252 38.47140121459961 L 18.8163013458252 38.4723014831543 Z M 9.648000717163086 16.40970039367676 C 5.139900207519531 16.40970039367676 1.484100461006165 12.73680114746094 1.484100461006165 8.205300331115723 C 1.484100461006165 3.673800706863403 5.139900207519531 7.415771392516035e-07 9.648000717163086 7.415771392516035e-07 C 14.15700054168701 7.415771392516035e-07 17.8119010925293 3.673800706863403 17.8119010925293 8.205300331115723 C 17.8119010925293 12.73680114746094 14.15700054168701 16.40970039367676 9.648000717163086 16.40970039367676 Z" stroke="none" fill="#707070"/>
  </g>
</svg>
