<svg xmlns="http://www.w3.org/2000/svg" xmlns:xlink="http://www.w3.org/1999/xlink" width="1373" height="776" viewBox="0 0 1373 776">
  <defs>
    <clipPath id="clip-Web_1920_1">
      <rect width="1373" height="776"/>
    </clipPath>
  </defs>
  <g id="Web_1920_1" data-name="Web 1920 – 1" clip-path="url(#clip-Web_1920_1)">
    <rect width="1373" height="776" fill="#fff"/>
    <g id="Rectangle_1" data-name="Rectangle 1" transform="translate(38 31)" fill="#fff" stroke="#707070" stroke-width="1">
      <rect width="89" height="89" stroke="none"/>
      <rect x="0.5" y="0.5" width="88" height="88" fill="none"/>
    </g>
    <g id="Rectangle_1-2" data-name="Rectangle 1" transform="translate(38 120)" fill="#fff" stroke="#707070" stroke-width="1">
      <rect width="89" height="89" stroke="none"/>
      <rect x="0.5" y="0.5" width="88" height="88" fill="none"/>
    </g>
    <g id="Rectangle_1-3" data-name="Rectangle 1" transform="translate(38 209)" fill="#fff" stroke="#707070" stroke-width="1">
      <rect width="89" height="89" stroke="none"/>
      <rect x="0.5" y="0.5" width="88" height="88" fill="none"/>
    </g>
    <g id="Rectangle_1-4" data-name="Rectangle 1" transform="translate(38 298)" fill="#fff" stroke="#707070" stroke-width="1">
      <rect width="89" height="88" stroke="none"/>
      <rect x="0.5" y="0.5" width="88" height="87" fill="none"/>
    </g>
    <g id="Rectangle_1-5" data-name="Rectangle 1" transform="translate(38 386)" fill="#fff" stroke="#707070" stroke-width="1">
      <rect width="89" height="89" stroke="none"/>
      <rect x="0.5" y="0.5" width="88" height="88" fill="none"/>
    </g>
    <g id="Rectangle_1-6" data-name="Rectangle 1" transform="translate(38 475)" fill="#fff" stroke="#707070" stroke-width="1">
      <rect width="89" height="89" stroke="none"/>
      <rect x="0.5" y="0.5" width="88" height="88" fill="none"/>
    </g>
    <g id="Rectangle_1-7" data-name="Rectangle 1" transform="translate(38 564)" fill="#fff" stroke="#707070" stroke-width="1">
      <rect width="89" height="89" stroke="none"/>
      <rect x="0.5" y="0.5" width="88" height="88" fill="none"/>
    </g>
    <g id="Rectangle_1-8" data-name="Rectangle 1" transform="translate(38 653)" fill="#fff" stroke="#707070" stroke-width="1">
      <rect width="89" height="89" stroke="none"/>
      <rect x="0.5" y="0.5" width="88" height="88" fill="none"/>
    </g>
    <g id="Rectangle_1-9" data-name="Rectangle 1" transform="translate(127 31)" fill="#fff" stroke="#707070" stroke-width="1">
      <rect width="89" height="89" stroke="none"/>
      <rect x="0.5" y="0.5" width="88" height="88" fill="none"/>
    </g>
    <g id="Rectangle_1-10" data-name="Rectangle 1" transform="translate(216 31)" fill="#fff" stroke="#707070" stroke-width="1">
      <rect width="89" height="89" stroke="none"/>
      <rect x="0.5" y="0.5" width="88" height="88" fill="none"/>
    </g>
    <g id="Rectangle_1-11" data-name="Rectangle 1" transform="translate(305 31)" fill="#fff" stroke="#707070" stroke-width="1">
      <rect width="88" height="89" stroke="none"/>
      <rect x="0.5" y="0.5" width="87" height="88" fill="none"/>
    </g>
    <g id="Rectangle_1-12" data-name="Rectangle 1" transform="translate(393 31)" fill="#fff" stroke="#707070" stroke-width="1">
      <rect width="89" height="89" stroke="none"/>
      <rect x="0.5" y="0.5" width="88" height="88" fill="none"/>
    </g>
    <g id="Rectangle_1-13" data-name="Rectangle 1" transform="translate(482 31)" fill="#fff" stroke="#707070" stroke-width="1">
      <rect width="89" height="89" stroke="none"/>
      <rect x="0.5" y="0.5" width="88" height="88" fill="none"/>
    </g>
    <g id="Rectangle_1-14" data-name="Rectangle 1" transform="translate(571 31)" fill="#fff" stroke="#707070" stroke-width="1">
      <rect width="89" height="89" stroke="none"/>
      <rect x="0.5" y="0.5" width="88" height="88" fill="none"/>
    </g>
    <g id="Rectangle_1-15" data-name="Rectangle 1" transform="translate(660 31)" fill="#fff" stroke="#707070" stroke-width="1">
      <rect width="89" height="89" stroke="none"/>
      <rect x="0.5" y="0.5" width="88" height="88" fill="none"/>
    </g>
    <g id="Rectangle_2" data-name="Rectangle 2" transform="translate(127 653)" fill="#fff" stroke="#707070" stroke-width="1">
      <rect width="89" height="89" stroke="none"/>
      <rect x="0.5" y="0.5" width="88" height="88" fill="none"/>
    </g>
    <g id="Rectangle_3" data-name="Rectangle 3" transform="translate(216 653)" fill="#fff" stroke="#707070" stroke-width="1">
      <rect width="89" height="89" stroke="none"/>
      <rect x="0.5" y="0.5" width="88" height="88" fill="none"/>
    </g>
    <g id="Rectangle_4" data-name="Rectangle 4" transform="translate(305 653)" fill="#fff" stroke="#707070" stroke-width="1">
      <rect width="88" height="89" stroke="none"/>
      <rect x="0.5" y="0.5" width="87" height="88" fill="none"/>
    </g>
    <g id="Rectangle_5" data-name="Rectangle 5" transform="translate(393 653)" fill="#fff" stroke="#707070" stroke-width="1">
      <rect width="89" height="89" stroke="none"/>
      <rect x="0.5" y="0.5" width="88" height="88" fill="none"/>
    </g>
    <g id="Rectangle_6" data-name="Rectangle 6" transform="translate(482 653)" fill="#fff" stroke="#707070" stroke-width="1">
      <rect width="89" height="89" stroke="none"/>
      <rect x="0.5" y="0.5" width="88" height="88" fill="none"/>
    </g>
    <g id="Rectangle_7" data-name="Rectangle 7" transform="translate(571 653)" fill="#fff" stroke="#707070" stroke-width="1">
      <rect width="89" height="89" stroke="none"/>
      <rect x="0.5" y="0.5" width="88" height="88" fill="none"/>
    </g>
    <g id="Rectangle_8" data-name="Rectangle 8" transform="translate(660 653)" fill="#fff" stroke="#707070" stroke-width="1">
      <rect width="89" height="89" stroke="none"/>
      <rect x="0.5" y="0.5" width="88" height="88" fill="none"/>
    </g>
    <g id="Rectangle_9" data-name="Rectangle 9" transform="translate(660 120)" fill="#fff" stroke="#707070" stroke-width="1">
      <rect width="89" height="89" stroke="none"/>
      <rect x="0.5" y="0.5" width="88" height="88" fill="none"/>
    </g>
    <g id="Rectangle_10" data-name="Rectangle 10" transform="translate(660 209)" fill="#fff" stroke="#707070" stroke-width="1">
      <rect width="89" height="89" stroke="none"/>
      <rect x="0.5" y="0.5" width="88" height="88" fill="none"/>
    </g>
    <g id="Rectangle_11" data-name="Rectangle 11" transform="translate(660 298)" fill="#fff" stroke="#707070" stroke-width="1">
      <rect width="89" height="88" stroke="none"/>
      <rect x="0.5" y="0.5" width="88" height="87" fill="none"/>
    </g>
    <g id="Rectangle_12" data-name="Rectangle 12" transform="translate(660 386)" fill="#fff" stroke="#707070" stroke-width="1">
      <rect width="89" height="89" stroke="none"/>
      <rect x="0.5" y="0.5" width="88" height="88" fill="none"/>
    </g>
    <g id="Rectangle_13" data-name="Rectangle 13" transform="translate(660 475)" fill="#fff" stroke="#707070" stroke-width="1">
      <rect width="89" height="89" stroke="none"/>
      <rect x="0.5" y="0.5" width="88" height="88" fill="none"/>
    </g>
    <g id="Rectangle_14" data-name="Rectangle 14" transform="translate(660 564)" fill="#fff" stroke="#707070" stroke-width="1">
      <rect width="89" height="89" stroke="none"/>
      <rect x="0.5" y="0.5" width="88" height="88" fill="none"/>
    </g>
    <g id="Rectangle_35" data-name="Rectangle 35" transform="translate(475.024 148) rotate(45)" fill="#fff" stroke="#707070" stroke-width="1">
      <rect width="223" height="116" stroke="none"/>
      <rect x="0.5" y="0.5" width="222" height="115" fill="none"/>
    </g>
    <g id="Rectangle_36" data-name="Rectangle 36" transform="translate(235.024 388) rotate(45)" fill="#fff" stroke="#707070" stroke-width="1">
      <rect width="223" height="116" stroke="none"/>
      <rect x="0.5" y="0.5" width="222" height="115" fill="none"/>
    </g>
    <g id="Union_11" data-name="Union 11" transform="translate(439 244.685) rotate(-45)" fill="#fff">
      <path d="M 38.98750686645508 137.3547973632813 L 17.17070579528809 137.3547973632813 L 17.17070579528809 115.6423950195313 L 38.98750686645508 115.6423950195313 L 38.98750686645508 137.3547973632813 Z M 38.98750686645508 108.4333114624023 L 17.17070579528809 108.4333114624023 L 17.17070579528809 67.33219909667969 L 17.28646850585938 67.33219909667969 L 17.40216064453125 67.26570892333984 L 51.03794097900391 47.93423461914063 L 51.28879547119141 47.79005432128906 L 51.28879547119141 47.50072479248047 L 51.28879547119141 19.38870811462402 L 51.28879547119141 18.88870811462402 L 50.78879547119141 18.88870811462402 L 19.47690582275391 18.88870811462402 L 18.97690582275391 18.88870811462402 L 18.97690582275391 19.38870811462402 L 18.97690582275391 34.39930725097656 L 0.4999960958957672 34.39930725097656 L 0.4999960958957672 19.38870811462402 L 0.4999960958957672 0.4999986886978149 L 69.76570892333984 0.4999986886978149 L 69.76570892333984 19.38870811462402 L 69.76570892333984 59.60470962524414 L 67.81333923339844 59.60470962524414 L 67.67990875244141 59.60470962524414 L 67.56419372558594 59.67119979858398 L 39.23836135864258 75.95030975341797 L 38.98750686645508 76.09447479248047 L 38.98750686645508 76.38381958007813 L 38.98750686645508 108.4333114624023 Z" stroke="none"/>
      <path d="M 38.48750686645508 136.8547973632813 L 38.48750686645508 116.1423950195313 L 17.67070579528809 116.1423950195313 L 17.67070579528809 136.8547973632813 L 38.48750686645508 136.8547973632813 M 38.48750686645508 107.9333114624023 L 38.48750686645508 76.38381958007813 L 38.48750686645508 75.80514526367188 L 38.98923110961914 75.51679992675781 L 67.31507110595703 59.23768997192383 L 67.54644775390625 59.10470962524414 L 67.81333923339844 59.10470962524414 L 69.26570892333984 59.10470962524414 L 69.26570892333984 19.38870811462402 L 69.26570892333984 0.9999986886978149 L 0.9999961256980896 0.9999986886978149 L 0.9999961256980896 19.38870811462402 L 0.9999961256980896 33.89930725097656 L 18.47690582275391 33.89930725097656 L 18.47690582275391 19.38870811462402 L 18.47690582275391 18.38870811462402 L 19.47690582275391 18.38870811462402 L 50.78879547119141 18.38870811462402 L 51.78879547119141 18.38870811462402 L 51.78879547119141 19.38870811462402 L 51.78879547119141 47.50072479248047 L 51.78879547119141 48.07938003540039 L 51.28708648681641 48.36772537231445 L 17.67070579528809 67.68804931640625 L 17.67070579528809 107.9333114624023 L 38.48750686645508 107.9333114624023 M 39.48750686645508 137.8547973632813 L 16.67070579528809 137.8547973632813 L 16.67070579528809 115.1423950195313 L 39.48750686645508 115.1423950195313 L 39.48750686645508 137.8547973632813 Z M 39.48750686645508 108.9333114624023 L 16.67070579528809 108.9333114624023 L 16.67070579528809 66.83219909667969 L 17.15301513671875 66.83219909667969 L 50.78879547119141 47.50072479248047 L 50.78879547119141 19.38870811462402 L 19.47690582275391 19.38870811462402 L 19.47690582275391 34.89930725097656 L -3.898481736541726e-06 34.89930725097656 L -3.898481736541726e-06 19.38870811462402 L -3.898481736541726e-06 -1.318359409197001e-06 L 70.26570892333984 -1.318359409197001e-06 L 70.26570892333984 19.38870811462402 L 70.26570892333984 60.10470962524414 L 67.81333923339844 60.10470962524414 L 39.48750686645508 76.38381958007813 L 39.48750686645508 108.9333114624023 Z" stroke="none" fill="#707070"/>
    </g>
    <g id="Union_13" data-name="Union 13" transform="translate(200 483.685) rotate(-45)" fill="#fff">
      <path d="M 38.98750686645508 137.3547973632813 L 17.17070579528809 137.3547973632813 L 17.17070579528809 115.6423950195313 L 38.98750686645508 115.6423950195313 L 38.98750686645508 137.3547973632813 Z M 38.98750686645508 108.4333114624023 L 17.17070579528809 108.4333114624023 L 17.17070579528809 67.33219909667969 L 17.28646850585938 67.33219909667969 L 17.40216064453125 67.26570892333984 L 51.03794097900391 47.93423461914063 L 51.28879547119141 47.79005432128906 L 51.28879547119141 47.50072479248047 L 51.28879547119141 19.38870811462402 L 51.28879547119141 18.88870811462402 L 50.78879547119141 18.88870811462402 L 19.47690582275391 18.88870811462402 L 18.97690582275391 18.88870811462402 L 18.97690582275391 19.38870811462402 L 18.97690582275391 34.39930725097656 L 0.4999960958957672 34.39930725097656 L 0.4999960958957672 19.38870811462402 L 0.4999960958957672 0.4999986886978149 L 69.76570892333984 0.4999986886978149 L 69.76570892333984 19.38870811462402 L 69.76570892333984 59.60470962524414 L 67.81333923339844 59.60470962524414 L 67.67990875244141 59.60470962524414 L 67.56419372558594 59.67119979858398 L 39.23836135864258 75.95030975341797 L 38.98750686645508 76.09447479248047 L 38.98750686645508 76.38381958007813 L 38.98750686645508 108.4333114624023 Z" stroke="none"/>
      <path d="M 38.48750686645508 136.8547973632813 L 38.48750686645508 116.1423950195313 L 17.67070579528809 116.1423950195313 L 17.67070579528809 136.8547973632813 L 38.48750686645508 136.8547973632813 M 38.48750686645508 107.9333114624023 L 38.48750686645508 76.38381958007813 L 38.48750686645508 75.80514526367188 L 38.98923110961914 75.51679992675781 L 67.31507110595703 59.23768997192383 L 67.54644775390625 59.10470962524414 L 67.81333923339844 59.10470962524414 L 69.26570892333984 59.10470962524414 L 69.26570892333984 19.38870811462402 L 69.26570892333984 0.9999986886978149 L 0.9999961256980896 0.9999986886978149 L 0.9999961256980896 19.38870811462402 L 0.9999961256980896 33.89930725097656 L 18.47690582275391 33.89930725097656 L 18.47690582275391 19.38870811462402 L 18.47690582275391 18.38870811462402 L 19.47690582275391 18.38870811462402 L 50.78879547119141 18.38870811462402 L 51.78879547119141 18.38870811462402 L 51.78879547119141 19.38870811462402 L 51.78879547119141 47.50072479248047 L 51.78879547119141 48.07938003540039 L 51.28708648681641 48.36772537231445 L 17.67070579528809 67.68804931640625 L 17.67070579528809 107.9333114624023 L 38.48750686645508 107.9333114624023 M 39.48750686645508 137.8547973632813 L 16.67070579528809 137.8547973632813 L 16.67070579528809 115.1423950195313 L 39.48750686645508 115.1423950195313 L 39.48750686645508 137.8547973632813 Z M 39.48750686645508 108.9333114624023 L 16.67070579528809 108.9333114624023 L 16.67070579528809 66.83219909667969 L 17.15301513671875 66.83219909667969 L 50.78879547119141 47.50072479248047 L 50.78879547119141 19.38870811462402 L 19.47690582275391 19.38870811462402 L 19.47690582275391 34.89930725097656 L -3.898481736541726e-06 34.89930725097656 L -3.898481736541726e-06 19.38870811462402 L -3.898481736541726e-06 -1.318359409197001e-06 L 70.26570892333984 -1.318359409197001e-06 L 70.26570892333984 19.38870811462402 L 70.26570892333984 60.10470962524414 L 67.81333923339844 60.10470962524414 L 39.48750686645508 76.38381958007813 L 39.48750686645508 108.9333114624023 Z" stroke="none" fill="#707070"/>
    </g>
    <g id="Group_3" data-name="Group 3">
      <g id="Union_7" data-name="Union 7" transform="translate(833 31)" fill="#fff">
        <path d="M 47.1662483215332 97.97260284423828 L 0.8334572315216064 97.97260284423828 C 0.6121010780334473 96.66709899902344 0.5000012516975403 95.33500671386719 0.5000012516975403 94.00679779052734 L 0.5000012516975403 53.74349975585938 C 0.5000012516975403 47.56566619873047 2.867905855178833 41.75177383422852 7.174370765686035 37.33830261230469 C 11.73855590820313 43.03276824951172 17.69371223449707 46.16060256958008 23.9994010925293 46.16060256958008 C 30.30565071105957 46.16060256958008 36.26113128662109 43.03276824951172 40.82533264160156 37.33830261230469 C 45.13179779052734 41.75177383422852 47.49970245361328 47.56566619873047 47.49970245361328 53.74349975585938 L 47.49970245361328 94.00679779052734 C 47.49970245361328 95.33773803710938 47.38761520385742 96.66976928710938 47.1662483215332 97.97260284423828 Z M 24.37470054626465 41.50210189819336 C 21.65886306762695 41.50210189819336 19.02443885803223 40.96056365966797 16.54458808898926 39.89255142211914 C 14.14848899841309 38.86058807373047 11.99630165100098 37.38300323486328 10.1478385925293 35.50081253051758 C 8.298738479614258 33.61800003051758 6.846963882446289 31.42545127868652 5.832838535308838 28.98407554626465 C 4.78273868560791 26.45611381530762 4.250301361083984 23.77038955688477 4.250301361083984 21.00150108337402 C 4.250301361083984 18.23238945007324 4.78273868560791 15.54648876190186 5.832838535308838 13.01840114593506 C 6.846963882446289 10.57690143585205 8.298738479614258 8.38426399230957 10.1478385925293 6.501389026641846 C 11.99630165100098 4.619163990020752 14.14847660064697 3.141538858413696 16.54458808898926 2.109563827514648 C 19.0244255065918 1.041538953781128 21.65885162353516 0.5000014305114746 24.37470054626465 0.5000014305114746 C 27.09055137634277 0.5000014305114746 29.72503852844238 1.041538953781128 32.20495223999023 2.109576463699341 C 34.60116195678711 3.141551494598389 36.75345230102539 4.619176387786865 38.60202789306641 6.501401424407959 C 40.45124053955078 8.384288787841797 41.90312576293945 10.57692623138428 42.91732788085938 13.01841354370117 C 43.96751403808594 15.54651355743408 44.5 18.23241424560547 44.5 21.00150108337402 C 44.5 23.77036476135254 43.96751403808594 26.45608901977539 42.91732788085938 28.98406410217285 C 41.90312576293945 31.4254264831543 40.45125198364258 33.61798858642578 38.60202789306641 35.50081253051758 C 36.75345230102539 37.38298797607422 34.60116195678711 38.86057662963867 32.20495223999023 39.89253997802734 C 29.72502708435059 40.96056365966797 27.09055137634277 41.50210189819336 24.37470054626465 41.50210189819336 Z" stroke="none"/>
        <path d="M 46.74007797241211 97.47261047363281 C 46.91251373291016 96.33056640625 46.99970626831055 95.16831207275391 46.99970626831055 94.00680541992188 L 46.99970626831055 53.74349975585938 C 46.99970626831055 47.88457870483398 44.82381820678711 42.36027908325195 40.85406494140625 38.09325408935547 C 36.24177169799805 43.62800598144531 30.29516792297363 46.66060638427734 23.99939727783203 46.66060638427734 C 17.70418548583984 46.66060638427734 11.75789928436279 43.62800598144531 7.145635604858398 38.09325790405273 C 3.17588472366333 42.36028289794922 0.9999979138374329 47.88457870483398 0.9999979138374329 53.74349975585938 L 0.9999979138374329 94.00680541992188 C 0.9999979138374329 95.16617584228516 1.087222933769226 96.32839202880859 1.259743809700012 97.47261047363281 L 46.74007797241211 97.47261047363281 M 24.37470436096191 41.00210189819336 C 27.02214431762695 41.00210189819336 29.59007835388184 40.47428894042969 32.00718307495117 39.43331527709961 C 34.34355926513672 38.42712783813477 36.4423713684082 36.98615646362305 38.24530410766602 35.15044784545898 C 40.04949188232422 33.3134765625 41.46603775024414 31.17426109313965 42.45558547973633 28.79223442077637 C 43.48038482666016 26.32538223266602 43.99999618530273 23.70419502258301 43.99999618530273 21.00150108337402 C 43.99999618530273 18.29858207702637 43.48038482666016 15.67722129821777 42.45558547973633 13.21022129058838 C 41.46602630615234 10.82808780670166 40.04949188232422 8.68879508972168 38.24529266357422 6.851754665374756 C 36.4423713684082 5.016007900238037 34.34357070922852 3.575008153915405 32.00718307495117 2.568794727325439 C 29.59009170532227 1.52782142162323 27.02215766906738 1.000008106231689 24.37470436096191 1.000008106231689 C 21.72726440429688 1.000008106231689 19.15938377380371 1.52782142162323 16.74237060546875 2.568794727325439 C 14.40609169006348 3.574994802474976 12.30739784240723 5.015981197357178 10.50458431243896 6.851727962493896 C 8.700517654418945 8.688755035400391 7.284064769744873 10.82804775238037 6.29459810256958 13.21019458770752 C 5.269877910614014 15.67718124389648 4.750304698944092 18.29855537414551 4.750304698944092 21.00150108337402 C 4.750304698944092 23.70422172546387 5.269877910614014 26.32540893554688 6.29458475112915 28.79226112365723 C 7.284064769744873 31.17430114746094 8.700504302978516 33.31351470947266 10.50457096099854 35.15047454833984 C 12.30739784240723 36.98618316650391 14.40609169006348 38.42714309692383 16.74237060546875 39.43332672119141 C 19.15938377380371 40.47428894042969 21.7272777557373 41.00210189819336 24.37470436096191 41.00210189819336 M 47.58479690551758 98.47261047363281 L 0.4149045646190643 98.47261047363281 C 0.1395045667886734 97.00650024414063 -2.106526608258719e-06 95.50440979003906 -2.106526608258719e-06 94.00680541992188 L -2.106526608258719e-06 53.74349975585938 C -2.106526608258719e-06 47.33280944824219 2.4965980052948 41.306396484375 7.028997898101807 36.77400970458984 C 7.091998100280762 36.71100997924805 7.154997825622559 36.64800643920898 7.218904495239258 36.58590316772461 C 11.72970485687256 42.43770217895508 17.6885986328125 45.66060638427734 23.99939727783203 45.66060638427734 C 30.3101978302002 45.66060638427734 36.26999664306641 42.43770217895508 40.78079605102539 36.58590316772461 C 40.81679916381836 36.62100982666016 40.85190582275391 36.65519332885742 40.88699722290039 36.69029998779297 L 40.970703125 36.77400970458984 C 45.50310516357422 41.306396484375 47.99970626831055 47.33280944824219 47.99970626831055 53.74349975585938 L 47.99970626831055 94.00680541992188 C 47.99970626831055 95.50710296630859 47.86019897460938 97.00920867919922 47.58479690551758 98.47170257568359 L 47.58479690551758 98.47261047363281 Z M 24.37470436096191 42.00210189819336 C 12.98430442810059 42.00210189819336 3.750304460525513 32.59979629516602 3.750304460525513 21.00150108337402 C 3.750304460525513 9.402301788330078 12.98430442810059 8.088785762083717e-06 24.37470436096191 8.088785762083717e-06 C 35.76510620117188 8.088785762083717e-06 44.99999618530273 9.402301788330078 44.99999618530273 21.00150108337402 C 44.99999618530273 32.59979629516602 35.76510620117188 42.00210189819336 24.37470436096191 42.00210189819336 Z" stroke="none" fill="#707070"/>
      </g>
      <g id="Rectangle_50" data-name="Rectangle 50" transform="translate(892 36)" fill="#fff" stroke="#707070" stroke-width="1">
        <rect width="170" height="90" stroke="none"/>
        <rect x="0.5" y="0.5" width="169" height="89" fill="none"/>
      </g>
    </g>
    <g id="Group_4" data-name="Group 4">
      <g id="Union_9" data-name="Union 9" transform="translate(1120 31)" fill="#fff">
        <path d="M 47.1662483215332 97.97260284423828 L 0.8334572315216064 97.97260284423828 C 0.6121010780334473 96.66709899902344 0.5000012516975403 95.33500671386719 0.5000012516975403 94.00679779052734 L 0.5000012516975403 53.74349975585938 C 0.5000012516975403 47.56566619873047 2.867905855178833 41.75177383422852 7.174370765686035 37.33830261230469 C 11.73855590820313 43.03276824951172 17.69371223449707 46.16060256958008 23.9994010925293 46.16060256958008 C 30.30565071105957 46.16060256958008 36.26113128662109 43.03276824951172 40.82533264160156 37.33830261230469 C 45.13179779052734 41.75177383422852 47.49970245361328 47.56566619873047 47.49970245361328 53.74349975585938 L 47.49970245361328 94.00679779052734 C 47.49970245361328 95.33773803710938 47.38761520385742 96.66976928710938 47.1662483215332 97.97260284423828 Z M 24.37470054626465 41.50210189819336 C 21.65886306762695 41.50210189819336 19.02443885803223 40.96056365966797 16.54458808898926 39.89255142211914 C 14.14848899841309 38.86058807373047 11.99630165100098 37.38300323486328 10.1478385925293 35.50081253051758 C 8.298738479614258 33.61800003051758 6.846963882446289 31.42545127868652 5.832838535308838 28.98407554626465 C 4.78273868560791 26.45611381530762 4.250301361083984 23.77038955688477 4.250301361083984 21.00150108337402 C 4.250301361083984 18.23238945007324 4.78273868560791 15.54648876190186 5.832838535308838 13.01840114593506 C 6.846963882446289 10.57690143585205 8.298738479614258 8.38426399230957 10.1478385925293 6.501389026641846 C 11.99630165100098 4.619163990020752 14.14847660064697 3.141538858413696 16.54458808898926 2.109563827514648 C 19.0244255065918 1.041538953781128 21.65885162353516 0.5000014305114746 24.37470054626465 0.5000014305114746 C 27.09055137634277 0.5000014305114746 29.72503852844238 1.041538953781128 32.20495223999023 2.109576463699341 C 34.60116195678711 3.141551494598389 36.75345230102539 4.619176387786865 38.60202789306641 6.501401424407959 C 40.45124053955078 8.384288787841797 41.90312576293945 10.57692623138428 42.91732788085938 13.01841354370117 C 43.96751403808594 15.54651355743408 44.5 18.23241424560547 44.5 21.00150108337402 C 44.5 23.77036476135254 43.96751403808594 26.45608901977539 42.91732788085938 28.98406410217285 C 41.90312576293945 31.4254264831543 40.45125198364258 33.61798858642578 38.60202789306641 35.50081253051758 C 36.75345230102539 37.38298797607422 34.60116195678711 38.86057662963867 32.20495223999023 39.89253997802734 C 29.72502708435059 40.96056365966797 27.09055137634277 41.50210189819336 24.37470054626465 41.50210189819336 Z" stroke="none"/>
        <path d="M 46.74007797241211 97.47261047363281 C 46.91251373291016 96.33056640625 46.99970626831055 95.16831207275391 46.99970626831055 94.00680541992188 L 46.99970626831055 53.74349975585938 C 46.99970626831055 47.88457870483398 44.82381820678711 42.36027908325195 40.85406494140625 38.09325408935547 C 36.24177169799805 43.62800598144531 30.29516792297363 46.66060638427734 23.99939727783203 46.66060638427734 C 17.70418548583984 46.66060638427734 11.75789928436279 43.62800598144531 7.145635604858398 38.09325790405273 C 3.17588472366333 42.36028289794922 0.9999979138374329 47.88457870483398 0.9999979138374329 53.74349975585938 L 0.9999979138374329 94.00680541992188 C 0.9999979138374329 95.16617584228516 1.087222933769226 96.32839202880859 1.259743809700012 97.47261047363281 L 46.74007797241211 97.47261047363281 M 24.37470436096191 41.00210189819336 C 27.02214431762695 41.00210189819336 29.59007835388184 40.47428894042969 32.00718307495117 39.43331527709961 C 34.34355926513672 38.42712783813477 36.4423713684082 36.98615646362305 38.24530410766602 35.15044784545898 C 40.04949188232422 33.3134765625 41.46603775024414 31.17426109313965 42.45558547973633 28.79223442077637 C 43.48038482666016 26.32538223266602 43.99999618530273 23.70419502258301 43.99999618530273 21.00150108337402 C 43.99999618530273 18.29858207702637 43.48038482666016 15.67722129821777 42.45558547973633 13.21022129058838 C 41.46602630615234 10.82808780670166 40.04949188232422 8.68879508972168 38.24529266357422 6.851754665374756 C 36.4423713684082 5.016007900238037 34.34357070922852 3.575008153915405 32.00718307495117 2.568794727325439 C 29.59009170532227 1.52782142162323 27.02215766906738 1.000008106231689 24.37470436096191 1.000008106231689 C 21.72726440429688 1.000008106231689 19.15938377380371 1.52782142162323 16.74237060546875 2.568794727325439 C 14.40609169006348 3.574994802474976 12.30739784240723 5.015981197357178 10.50458431243896 6.851727962493896 C 8.700517654418945 8.688755035400391 7.284064769744873 10.82804775238037 6.29459810256958 13.21019458770752 C 5.269877910614014 15.67718124389648 4.750304698944092 18.29855537414551 4.750304698944092 21.00150108337402 C 4.750304698944092 23.70422172546387 5.269877910614014 26.32540893554688 6.29458475112915 28.79226112365723 C 7.284064769744873 31.17430114746094 8.700504302978516 33.31351470947266 10.50457096099854 35.15047454833984 C 12.30739784240723 36.98618316650391 14.40609169006348 38.42714309692383 16.74237060546875 39.43332672119141 C 19.15938377380371 40.47428894042969 21.7272777557373 41.00210189819336 24.37470436096191 41.00210189819336 M 47.58479690551758 98.47261047363281 L 0.4149045646190643 98.47261047363281 C 0.1395045667886734 97.00650024414063 -2.106526608258719e-06 95.50440979003906 -2.106526608258719e-06 94.00680541992188 L -2.106526608258719e-06 53.74349975585938 C -2.106526608258719e-06 47.33280944824219 2.4965980052948 41.306396484375 7.028997898101807 36.77400970458984 C 7.091998100280762 36.71100997924805 7.154997825622559 36.64800643920898 7.218904495239258 36.58590316772461 C 11.72970485687256 42.43770217895508 17.6885986328125 45.66060638427734 23.99939727783203 45.66060638427734 C 30.3101978302002 45.66060638427734 36.26999664306641 42.43770217895508 40.78079605102539 36.58590316772461 C 40.81679916381836 36.62100982666016 40.85190582275391 36.65519332885742 40.88699722290039 36.69029998779297 L 40.970703125 36.77400970458984 C 45.50310516357422 41.306396484375 47.99970626831055 47.33280944824219 47.99970626831055 53.74349975585938 L 47.99970626831055 94.00680541992188 C 47.99970626831055 95.50710296630859 47.86019897460938 97.00920867919922 47.58479690551758 98.47170257568359 L 47.58479690551758 98.47261047363281 Z M 24.37470436096191 42.00210189819336 C 12.98430442810059 42.00210189819336 3.750304460525513 32.59979629516602 3.750304460525513 21.00150108337402 C 3.750304460525513 9.402301788330078 12.98430442810059 8.088785762083717e-06 24.37470436096191 8.088785762083717e-06 C 35.76510620117188 8.088785762083717e-06 44.99999618530273 9.402301788330078 44.99999618530273 21.00150108337402 C 44.99999618530273 32.59979629516602 35.76510620117188 42.00210189819336 24.37470436096191 42.00210189819336 Z" stroke="none" fill="#707070"/>
      </g>
      <g id="Rectangle_51" data-name="Rectangle 51" transform="translate(1179 36)" fill="#fff" stroke="#707070" stroke-width="1">
        <rect width="170" height="90" stroke="none"/>
        <rect x="0.5" y="0.5" width="169" height="89" fill="none"/>
      </g>
    </g>
    <g id="Group_5" data-name="Group 5" transform="translate(0 -124.5)">
      <g id="Union_8" data-name="Union 8" transform="translate(833 289)" fill="#fff">
        <path d="M 47.1662483215332 97.97260284423828 L 0.8334572315216064 97.97260284423828 C 0.6121010780334473 96.66709899902344 0.5000012516975403 95.33500671386719 0.5000012516975403 94.00679779052734 L 0.5000012516975403 53.74349975585938 C 0.5000012516975403 47.56566619873047 2.867905855178833 41.75177383422852 7.174370765686035 37.33830261230469 C 11.73855590820313 43.03276824951172 17.69371223449707 46.16060256958008 23.9994010925293 46.16060256958008 C 30.30565071105957 46.16060256958008 36.26113128662109 43.03276824951172 40.82533264160156 37.33830261230469 C 45.13179779052734 41.75177383422852 47.49970245361328 47.56566619873047 47.49970245361328 53.74349975585938 L 47.49970245361328 94.00679779052734 C 47.49970245361328 95.33773803710938 47.38761520385742 96.66976928710938 47.1662483215332 97.97260284423828 Z M 24.37470054626465 41.50210189819336 C 21.65886306762695 41.50210189819336 19.02443885803223 40.96056365966797 16.54458808898926 39.89255142211914 C 14.14848899841309 38.86058807373047 11.99630165100098 37.38300323486328 10.1478385925293 35.50081253051758 C 8.298738479614258 33.61800003051758 6.846963882446289 31.42545127868652 5.832838535308838 28.98407554626465 C 4.78273868560791 26.45611381530762 4.250301361083984 23.77038955688477 4.250301361083984 21.00150108337402 C 4.250301361083984 18.23238945007324 4.78273868560791 15.54648876190186 5.832838535308838 13.01840114593506 C 6.846963882446289 10.57690143585205 8.298738479614258 8.38426399230957 10.1478385925293 6.501389026641846 C 11.99630165100098 4.619163990020752 14.14847660064697 3.141538858413696 16.54458808898926 2.109563827514648 C 19.0244255065918 1.041538953781128 21.65885162353516 0.5000014305114746 24.37470054626465 0.5000014305114746 C 27.09055137634277 0.5000014305114746 29.72503852844238 1.041538953781128 32.20495223999023 2.109576463699341 C 34.60116195678711 3.141551494598389 36.75345230102539 4.619176387786865 38.60202789306641 6.501401424407959 C 40.45124053955078 8.384288787841797 41.90312576293945 10.57692623138428 42.91732788085938 13.01841354370117 C 43.96751403808594 15.54651355743408 44.5 18.23241424560547 44.5 21.00150108337402 C 44.5 23.77036476135254 43.96751403808594 26.45608901977539 42.91732788085938 28.98406410217285 C 41.90312576293945 31.4254264831543 40.45125198364258 33.61798858642578 38.60202789306641 35.50081253051758 C 36.75345230102539 37.38298797607422 34.60116195678711 38.86057662963867 32.20495223999023 39.89253997802734 C 29.72502708435059 40.96056365966797 27.09055137634277 41.50210189819336 24.37470054626465 41.50210189819336 Z" stroke="none"/>
        <path d="M 46.74007797241211 97.47261047363281 C 46.91251373291016 96.33056640625 46.99970626831055 95.16831207275391 46.99970626831055 94.00680541992188 L 46.99970626831055 53.74349975585938 C 46.99970626831055 47.88457870483398 44.82381820678711 42.36027908325195 40.85406494140625 38.09325408935547 C 36.24177169799805 43.62800598144531 30.29516792297363 46.66060638427734 23.99939727783203 46.66060638427734 C 17.70418548583984 46.66060638427734 11.75789928436279 43.62800598144531 7.145635604858398 38.09325790405273 C 3.17588472366333 42.36028289794922 0.9999979138374329 47.88457870483398 0.9999979138374329 53.74349975585938 L 0.9999979138374329 94.00680541992188 C 0.9999979138374329 95.16617584228516 1.087222933769226 96.32839202880859 1.259743809700012 97.47261047363281 L 46.74007797241211 97.47261047363281 M 24.37470436096191 41.00210189819336 C 27.02214431762695 41.00210189819336 29.59007835388184 40.47428894042969 32.00718307495117 39.43331527709961 C 34.34355926513672 38.42712783813477 36.4423713684082 36.98615646362305 38.24530410766602 35.15044784545898 C 40.04949188232422 33.3134765625 41.46603775024414 31.17426109313965 42.45558547973633 28.79223442077637 C 43.48038482666016 26.32538223266602 43.99999618530273 23.70419502258301 43.99999618530273 21.00150108337402 C 43.99999618530273 18.29858207702637 43.48038482666016 15.67722129821777 42.45558547973633 13.21022129058838 C 41.46602630615234 10.82808780670166 40.04949188232422 8.68879508972168 38.24529266357422 6.851754665374756 C 36.4423713684082 5.016007900238037 34.34357070922852 3.575008153915405 32.00718307495117 2.568794727325439 C 29.59009170532227 1.52782142162323 27.02215766906738 1.000008106231689 24.37470436096191 1.000008106231689 C 21.72726440429688 1.000008106231689 19.15938377380371 1.52782142162323 16.74237060546875 2.568794727325439 C 14.40609169006348 3.574994802474976 12.30739784240723 5.015981197357178 10.50458431243896 6.851727962493896 C 8.700517654418945 8.688755035400391 7.284064769744873 10.82804775238037 6.29459810256958 13.21019458770752 C 5.269877910614014 15.67718124389648 4.750304698944092 18.29855537414551 4.750304698944092 21.00150108337402 C 4.750304698944092 23.70422172546387 5.269877910614014 26.32540893554688 6.29458475112915 28.79226112365723 C 7.284064769744873 31.17430114746094 8.700504302978516 33.31351470947266 10.50457096099854 35.15047454833984 C 12.30739784240723 36.98618316650391 14.40609169006348 38.42714309692383 16.74237060546875 39.43332672119141 C 19.15938377380371 40.47428894042969 21.7272777557373 41.00210189819336 24.37470436096191 41.00210189819336 M 47.58479690551758 98.47261047363281 L 0.4149045646190643 98.47261047363281 C 0.1395045667886734 97.00650024414063 -2.106526608258719e-06 95.50440979003906 -2.106526608258719e-06 94.00680541992188 L -2.106526608258719e-06 53.74349975585938 C -2.106526608258719e-06 47.33280944824219 2.4965980052948 41.306396484375 7.028997898101807 36.77400970458984 C 7.091998100280762 36.71100997924805 7.154997825622559 36.64800643920898 7.218904495239258 36.58590316772461 C 11.72970485687256 42.43770217895508 17.6885986328125 45.66060638427734 23.99939727783203 45.66060638427734 C 30.3101978302002 45.66060638427734 36.26999664306641 42.43770217895508 40.78079605102539 36.58590316772461 C 40.81679916381836 36.62100982666016 40.85190582275391 36.65519332885742 40.88699722290039 36.69029998779297 L 40.970703125 36.77400970458984 C 45.50310516357422 41.306396484375 47.99970626831055 47.33280944824219 47.99970626831055 53.74349975585938 L 47.99970626831055 94.00680541992188 C 47.99970626831055 95.50710296630859 47.86019897460938 97.00920867919922 47.58479690551758 98.47170257568359 L 47.58479690551758 98.47261047363281 Z M 24.37470436096191 42.00210189819336 C 12.98430442810059 42.00210189819336 3.750304460525513 32.59979629516602 3.750304460525513 21.00150108337402 C 3.750304460525513 9.402301788330078 12.98430442810059 8.088785762083717e-06 24.37470436096191 8.088785762083717e-06 C 35.76510620117188 8.088785762083717e-06 44.99999618530273 9.402301788330078 44.99999618530273 21.00150108337402 C 44.99999618530273 32.59979629516602 35.76510620117188 42.00210189819336 24.37470436096191 42.00210189819336 Z" stroke="none" fill="#707070"/>
      </g>
      <g id="Rectangle_52" data-name="Rectangle 52" transform="translate(892 294)" fill="#fff" stroke="#707070" stroke-width="1">
        <rect width="170" height="90" stroke="none"/>
        <rect x="0.5" y="0.5" width="169" height="89" fill="none"/>
      </g>
    </g>
    <g id="Rectangle_54" data-name="Rectangle 54" transform="translate(795 431)" fill="#fff" stroke="#707070" stroke-width="1">
      <rect width="546" height="311" stroke="none"/>
      <rect x="0.5" y="0.5" width="545" height="310" fill="none"/>
    </g>
    <g id="Group_2" data-name="Group 2" transform="translate(0 -242)">
      <g id="Rectangle_55" data-name="Rectangle 55" transform="translate(795 520)" fill="#fff" stroke="#707070" stroke-width="1">
        <rect width="546" height="51" stroke="none"/>
        <rect x="0.5" y="0.5" width="545" height="50" fill="none"/>
      </g>
      <g id="Rectangle_56" data-name="Rectangle 56" transform="translate(795 570)" fill="#fff" stroke="#707070" stroke-width="1">
        <rect width="273" height="39" stroke="none"/>
        <rect x="0.5" y="0.5" width="272" height="38" fill="none"/>
      </g>
      <g id="Rectangle_58" data-name="Rectangle 58" transform="translate(1068 570)" fill="#fff" stroke="#707070" stroke-width="1">
        <rect width="273" height="39" stroke="none"/>
        <rect x="0.5" y="0.5" width="272" height="38" fill="none"/>
      </g>
      <g id="Rectangle_59" data-name="Rectangle 59" transform="translate(795 609)" fill="#fff" stroke="#707070" stroke-width="1">
        <rect width="273" height="39" stroke="none"/>
        <rect x="0.5" y="0.5" width="272" height="38" fill="none"/>
      </g>
      <g id="Group_1" data-name="Group 1" transform="translate(0 89)">
        <g id="Rectangle_60" data-name="Rectangle 60" transform="translate(1068 520)" fill="#fff" stroke="#707070" stroke-width="1">
          <rect width="273" height="39" stroke="none"/>
          <rect x="0.5" y="0.5" width="272" height="38" fill="none"/>
        </g>
      </g>
      <g id="Rectangle_69" data-name="Rectangle 69" transform="translate(795 672)" fill="#fff" stroke="#707070" stroke-width="1">
        <rect width="546" height="51" stroke="none"/>
        <rect x="0.5" y="0.5" width="545" height="50" fill="none"/>
      </g>
    </g>
    <g id="Group_6" data-name="Group 6" transform="translate(0 133.5)">
      <g id="Union_9-2" data-name="Union 9" transform="translate(1120 31)" fill="#fff">
        <path d="M 47.1662483215332 97.97260284423828 L 0.8334572315216064 97.97260284423828 C 0.6121010780334473 96.66709899902344 0.5000012516975403 95.33500671386719 0.5000012516975403 94.00679779052734 L 0.5000012516975403 53.74349975585938 C 0.5000012516975403 47.56566619873047 2.867905855178833 41.75177383422852 7.174370765686035 37.33830261230469 C 11.73855590820313 43.03276824951172 17.69371223449707 46.16060256958008 23.9994010925293 46.16060256958008 C 30.30565071105957 46.16060256958008 36.26113128662109 43.03276824951172 40.82533264160156 37.33830261230469 C 45.13179779052734 41.75177383422852 47.49970245361328 47.56566619873047 47.49970245361328 53.74349975585938 L 47.49970245361328 94.00679779052734 C 47.49970245361328 95.33773803710938 47.38761520385742 96.66976928710938 47.1662483215332 97.97260284423828 Z M 24.37470054626465 41.50210189819336 C 21.65886306762695 41.50210189819336 19.02443885803223 40.96056365966797 16.54458808898926 39.89255142211914 C 14.14848899841309 38.86058807373047 11.99630165100098 37.38300323486328 10.1478385925293 35.50081253051758 C 8.298738479614258 33.61800003051758 6.846963882446289 31.42545127868652 5.832838535308838 28.98407554626465 C 4.78273868560791 26.45611381530762 4.250301361083984 23.77038955688477 4.250301361083984 21.00150108337402 C 4.250301361083984 18.23238945007324 4.78273868560791 15.54648876190186 5.832838535308838 13.01840114593506 C 6.846963882446289 10.57690143585205 8.298738479614258 8.38426399230957 10.1478385925293 6.501389026641846 C 11.99630165100098 4.619163990020752 14.14847660064697 3.141538858413696 16.54458808898926 2.109563827514648 C 19.0244255065918 1.041538953781128 21.65885162353516 0.5000014305114746 24.37470054626465 0.5000014305114746 C 27.09055137634277 0.5000014305114746 29.72503852844238 1.041538953781128 32.20495223999023 2.109576463699341 C 34.60116195678711 3.141551494598389 36.75345230102539 4.619176387786865 38.60202789306641 6.501401424407959 C 40.45124053955078 8.384288787841797 41.90312576293945 10.57692623138428 42.91732788085938 13.01841354370117 C 43.96751403808594 15.54651355743408 44.5 18.23241424560547 44.5 21.00150108337402 C 44.5 23.77036476135254 43.96751403808594 26.45608901977539 42.91732788085938 28.98406410217285 C 41.90312576293945 31.4254264831543 40.45125198364258 33.61798858642578 38.60202789306641 35.50081253051758 C 36.75345230102539 37.38298797607422 34.60116195678711 38.86057662963867 32.20495223999023 39.89253997802734 C 29.72502708435059 40.96056365966797 27.09055137634277 41.50210189819336 24.37470054626465 41.50210189819336 Z" stroke="none"/>
        <path d="M 46.74007797241211 97.47261047363281 C 46.91251373291016 96.33056640625 46.99970626831055 95.16831207275391 46.99970626831055 94.00680541992188 L 46.99970626831055 53.74349975585938 C 46.99970626831055 47.88457870483398 44.82381820678711 42.36027908325195 40.85406494140625 38.09325408935547 C 36.24177169799805 43.62800598144531 30.29516792297363 46.66060638427734 23.99939727783203 46.66060638427734 C 17.70418548583984 46.66060638427734 11.75789928436279 43.62800598144531 7.145635604858398 38.09325790405273 C 3.17588472366333 42.36028289794922 0.9999979138374329 47.88457870483398 0.9999979138374329 53.74349975585938 L 0.9999979138374329 94.00680541992188 C 0.9999979138374329 95.16617584228516 1.087222933769226 96.32839202880859 1.259743809700012 97.47261047363281 L 46.74007797241211 97.47261047363281 M 24.37470436096191 41.00210189819336 C 27.02214431762695 41.00210189819336 29.59007835388184 40.47428894042969 32.00718307495117 39.43331527709961 C 34.34355926513672 38.42712783813477 36.4423713684082 36.98615646362305 38.24530410766602 35.15044784545898 C 40.04949188232422 33.3134765625 41.46603775024414 31.17426109313965 42.45558547973633 28.79223442077637 C 43.48038482666016 26.32538223266602 43.99999618530273 23.70419502258301 43.99999618530273 21.00150108337402 C 43.99999618530273 18.29858207702637 43.48038482666016 15.67722129821777 42.45558547973633 13.21022129058838 C 41.46602630615234 10.82808780670166 40.04949188232422 8.68879508972168 38.24529266357422 6.851754665374756 C 36.4423713684082 5.016007900238037 34.34357070922852 3.575008153915405 32.00718307495117 2.568794727325439 C 29.59009170532227 1.52782142162323 27.02215766906738 1.000008106231689 24.37470436096191 1.000008106231689 C 21.72726440429688 1.000008106231689 19.15938377380371 1.52782142162323 16.74237060546875 2.568794727325439 C 14.40609169006348 3.574994802474976 12.30739784240723 5.015981197357178 10.50458431243896 6.851727962493896 C 8.700517654418945 8.688755035400391 7.284064769744873 10.82804775238037 6.29459810256958 13.21019458770752 C 5.269877910614014 15.67718124389648 4.750304698944092 18.29855537414551 4.750304698944092 21.00150108337402 C 4.750304698944092 23.70422172546387 5.269877910614014 26.32540893554688 6.29458475112915 28.79226112365723 C 7.284064769744873 31.17430114746094 8.700504302978516 33.31351470947266 10.50457096099854 35.15047454833984 C 12.30739784240723 36.98618316650391 14.40609169006348 38.42714309692383 16.74237060546875 39.43332672119141 C 19.15938377380371 40.47428894042969 21.7272777557373 41.00210189819336 24.37470436096191 41.00210189819336 M 47.58479690551758 98.47261047363281 L 0.4149045646190643 98.47261047363281 C 0.1395045667886734 97.00650024414063 -2.106526608258719e-06 95.50440979003906 -2.106526608258719e-06 94.00680541992188 L -2.106526608258719e-06 53.74349975585938 C -2.106526608258719e-06 47.33280944824219 2.4965980052948 41.306396484375 7.028997898101807 36.77400970458984 C 7.091998100280762 36.71100997924805 7.154997825622559 36.64800643920898 7.218904495239258 36.58590316772461 C 11.72970485687256 42.43770217895508 17.6885986328125 45.66060638427734 23.99939727783203 45.66060638427734 C 30.3101978302002 45.66060638427734 36.26999664306641 42.43770217895508 40.78079605102539 36.58590316772461 C 40.81679916381836 36.62100982666016 40.85190582275391 36.65519332885742 40.88699722290039 36.69029998779297 L 40.970703125 36.77400970458984 C 45.50310516357422 41.306396484375 47.99970626831055 47.33280944824219 47.99970626831055 53.74349975585938 L 47.99970626831055 94.00680541992188 C 47.99970626831055 95.50710296630859 47.86019897460938 97.00920867919922 47.58479690551758 98.47170257568359 L 47.58479690551758 98.47261047363281 Z M 24.37470436096191 42.00210189819336 C 12.98430442810059 42.00210189819336 3.750304460525513 32.59979629516602 3.750304460525513 21.00150108337402 C 3.750304460525513 9.402301788330078 12.98430442810059 8.088785762083717e-06 24.37470436096191 8.088785762083717e-06 C 35.76510620117188 8.088785762083717e-06 44.99999618530273 9.402301788330078 44.99999618530273 21.00150108337402 C 44.99999618530273 32.59979629516602 35.76510620117188 42.00210189819336 24.37470436096191 42.00210189819336 Z" stroke="none" fill="#707070"/>
      </g>
      <g id="Rectangle_51-2" data-name="Rectangle 51" transform="translate(1179 36)" fill="#fff" stroke="#707070" stroke-width="1">
        <rect width="170" height="90" stroke="none"/>
        <rect x="0.5" y="0.5" width="169" height="89" fill="none"/>
      </g>
    </g>
  </g>
</svg>
